<svg width="54" height="56" viewBox="0 0 54 56" fill="none" xmlns="http://www.w3.org/2000/svg">
<path d="M7.40179 55.5454H45.7917C49.8792 55.5454 53.1934 52.2312 53.1934 48.1436V16.9751C53.1934 14.2906 51.7425 11.8196 49.3968 10.5123L30.7455 1.84639C28.5028 0.594349 25.7741 0.594349 23.5315 1.84639L3.79664 10.5123C1.4509 11.8196 0 14.2869 0 16.9677V48.1583C0 52.2459 3.31423 55.5454 7.40179 55.5454Z" fill="#1F584F"/>
<path d="M39.108 21.9712H14.0818C9.71329 21.9712 6.17188 25.5126 6.17188 29.8812V30.5109C6.17188 34.8794 9.71329 38.4208 14.0818 38.4208H39.108C43.4765 38.4208 47.018 34.8794 47.018 30.5109V29.8812C47.018 25.5126 43.4765 21.9712 39.108 21.9712Z" stroke="#BACAB2" stroke-width="1.88406" stroke-miterlimit="10"/>
<path d="M34.8184 42.3919V17.9991C34.8184 13.4557 31.136 9.77246 26.5935 9.77246C22.0511 9.77246 18.3687 13.4557 18.3687 17.9991L18.3687 42.3919C18.3687 46.9353 22.0511 50.6185 26.5935 50.6185C31.136 50.6185 34.8184 46.9353 34.8184 42.3919Z" stroke="#BACAB2" stroke-width="1.88406" stroke-miterlimit="10"/>
<path d="M32.1301 29.8657C33.9603 26.8277 30.02 23.6129 27.4239 26.0249L26.5622 27.1554C26.5254 27.1886 26.4701 27.1922 26.4296 27.1554L25.4906 26.0212C22.8944 23.6092 18.9542 26.824 20.7844 29.862L25.9988 35.7577C26.2676 36.0486 26.7279 36.0486 26.993 35.7577L32.1264 29.8657H32.1301Z" fill="#BACAB2"/>
</svg>
